<svg xmlns="http://www.w3.org/2000/svg">
  <defs>
    <path id="home" d="M12 2.5 2.5 10v11.5h7v-7h5v7h7V10L12 2.5Zm0 2.5 7.5 5.9v8.6h-3v-7h-9v7h-3v-8.6L12 5Z"/>
    <path id="exam" d="M6 2h12a2 2 0 0 1 2 2v16a2 2 0 0 1-2 2H6a2 2 0 0 1-2-2V4a2 2 0 0 1 2-2Zm0 2v16h12V4H6Zm2 3h8v2H8V7Zm0 4h8v2H8v-2Zm0 4h5v2H8v-2Z"/>
    <path id="lab" d="M8 2h8v2h-1v5.2l5.3 8.6A2.8 2.8 0 0 1 17.9 22H6.1a2.8 2.8 0 0 1-2.4-4.2L9 9.2V4H8V2Zm3 2v5.8l-5.6 9a.8.8 0 0 0 .7 1.2h11.8a.8.8 0 0 0 .7-1.2l-5.6-9V4h-2Zm-3 11h8l1.2 2H6.8L8 15Z"/>
    <path id="history" d="M12 3a9 9 0 1 1-8.2 5.3L1.5 6v6h6L5.3 9.8A7 7 0 1 0 12 5V3Zm-1 4h2v5.6l3.5 2.1-1 1.7-4.5-2.7V7Z"/>
    <path id="bookmark" d="M6 2h12a2 2 0 0 1 2 2v19l-8-4.7L4 23V4a2 2 0 0 1 2-2Zm0 2v15.5l6-3.5 6 3.5V4H6Z"/>
    <path id="user" d="M12 2a5 5 0 1 1 0 10 5 5 0 0 1 0-10Zm0 2a3 3 0 1 0 0 6 3 3 0 0 0 0-6Zm0 10c5.5 0 9 2.5 9 6v2H3v-2c0-3.5 3.5-6 9-6Zm0 2c-4.2 0-7 1.7-7 4h14c0-2.3-2.8-4-7-4Z"/>
    <path id="logout" d="M4 2h9v2H6v16h7v2H4V2Zm12.6 5 5 5-5 5-1.4-1.4 2.6-2.6H10v-2h7.8l-2.6-2.6L16.6 7Z"/>
    <path id="download" d="M11 2h2v11.2l3.6-3.6L18 11l-6 6-6-6 1.4-1.4 3.6 3.6V2ZM4 20h16v2H4v-2Z"/>
    <path id="menu" d="M3 5h18v2H3V5Zm0 6h18v2H3v-2Zm0 6h18v2H3v-2Z"/>
    <path id="eye" d="M12 5c5 0 9.3 3 11 7-1.7 4-6 7-11 7S2.7 16 1 12c1.7-4 6-7 11-7Zm0 2c-3.8 0-7.2 2-8.7 5 1.5 3 4.9 5 8.7 5s7.2-2 8.7-5C19.2 9 15.8 7 12 7Zm0 1.5a3.5 3.5 0 1 1 0 7 3.5 3.5 0 0 1 0-7Zm0 2a1.5 1.5 0 1 0 0 3 1.5 1.5 0 0 0 0-3Z"/>
    <path id="arrow" d="m13.6 5 7 7-7 7-1.4-1.4 4.6-4.6H3v-2h13.8l-4.6-4.6L13.6 5Z"/>
    <path id="chevron" d="m6.5 9 5.5 5.5L17.5 9l1.4 1.4-6.9 7-6.9-7L6.5 9Z"/>
    <path id="clock" d="M12 2a10 10 0 1 1 0 20 10 10 0 0 1 0-20Zm0 2a8 8 0 1 0 0 16 8 8 0 0 0 0-16Zm-1 3h2v4.6l3.5 2.1-1 1.7-4.5-2.7V7Z"/>
    <path id="check" d="m9.5 17.5-5-5 1.4-1.4 3.6 3.6 8.6-8.6 1.4 1.4-10 10Z"/>
    <path id="target" d="M12 2a10 10 0 1 1 0 20 10 10 0 0 1 0-20Zm0 2a8 8 0 1 0 0 16 8 8 0 0 0 0-16Zm0 3a5 5 0 1 1 0 10 5 5 0 0 1 0-10Zm0 2a3 3 0 1 0 0 6 3 3 0 0 0 0-6Zm0 2a1 1 0 1 1 0 2 1 1 0 0 1 0-2Z"/>
    <path id="trophy" d="M7 2h10v2h4v4a5 5 0 0 1-5 5h-.3A6 6 0 0 1 13 15.7V19h4v2H7v-2h4v-3.3A6 6 0 0 1 8.3 13H8a5 5 0 0 1-5-5V4h4V2Zm2 2v5a4 4 0 0 0 8 0V4H9ZM5 6v2a3 3 0 0 0 2.1 2.9A6 6 0 0 1 7 9V6H5Zm14 0v3c0 .7-.1 1.3-.3 1.9A3 3 0 0 0 19 8V6Z"/>
    <path id="fire" d="M13 2c.7 4-2.5 5.2-2.5 8 0 1.2.7 2 1.5 2.5 0-2 1-3.2 2.5-4.5 1.2 2.1 3.5 4.3 3.5 7.5A6 6 0 0 1 6 15c0-4 2.5-7.8 7-13Zm1 12c-.5.5-1 1.3-1 2.5 0 .8-.4 1.4-1 1.5-1.6-.2-2.8-1.5-2.8-3 0-1.1.4-2.2 1-3.3.5 1.2 1.3 2 2.2 2.5.7.4 1.2.3 1.6-.2Z"/>
    <path id="close" d="m5.6 4.2 6.4 6.4 6.4-6.4 1.4 1.4-6.4 6.4 6.4 6.4-1.4 1.4-6.4-6.4-6.4 6.4-1.4-1.4 6.4-6.4-6.4-6.4 1.4-1.4Z"/>
    <path id="flag" d="M5 2h2v2h12l-3 5 3 5H7v8H5V2Zm2 4v6h8.5l-1.8-3 1.8-3H7Z"/>
    <path id="chevron-left" d="m15.5 5-7 7 7 7 1.4-1.4-5.6-5.6 5.6-5.6L15.5 5Z"/>
    <path id="chevron-right" d="m8.5 5-1.4 1.4 5.6 5.6-5.6 5.6L8.5 19l7-7-7-7Z"/>
    <path id="info" d="M12 2a10 10 0 1 1 0 20 10 10 0 0 1 0-20Zm0 2a8 8 0 1 0 0 16 8 8 0 0 0 0-16Zm-1 6h2v7h-2v-7Zm0-3h2v2h-2V7Z"/>
    <path id="monitor" d="M3 3h18v14H3V3Zm2 2v10h14V5H5Zm4 14h6v2H9v-2Z"/>
    <path id="design" d="m17.7 2.9 3.4 3.4L8.4 19H5v-3.4L17.7 2.9Zm0 2.8L7 16.4V17h.6L18.3 6.3l-.6-.6ZM3 21h18v2H3v-2Z"/>
    <path id="api" d="M8 4a4 4 0 0 1 4 4v2h-2V8a2 2 0 1 0-4 0v2H4V8a4 4 0 0 1 4-4Zm8 10a4 4 0 0 1 4 4 4 4 0 1 1-8 0v-2h2v2a2 2 0 1 0 4 0 2 2 0 0 0-2-2h-2v-2h2Zm-9-3h10v2H7v-2Z"/>
    <path id="security" d="M12 2 21 5v6c0 5.6-3.8 9.7-9 11-5.2-1.3-9-5.4-9-11V5l9-3Zm0 2.1L5 6.4V11c0 4.4 2.8 7.6 7 8.9 4.2-1.3 7-4.5 7-8.9V6.4l-7-2.3Zm-1 4h2v4h3v2h-5v-6Z"/>
    <path id="trash" d="M8 2h8l1 2h4v2H3V4h4l1-2Zm-3 6h14l-1 14H6L5 8Zm2.1 2 .7 10h8.4l.7-10H7.1Z"/>
    <path id="database" d="M12 2c5 0 9 1.6 9 4v12c0 2.4-4 4-9 4s-9-1.6-9-4V6c0-2.4 4-4 9-4Zm0 2C7.7 4 5 5.3 5 6s2.7 2 7 2 7-1.3 7-2-2.7-2-7-2Zm-7 5.5V12c0 .7 2.7 2 7 2s7-1.3 7-2V9.5c-1.7 1-4.2 1.5-7 1.5s-5.3-.5-7-1.5Zm0 6V18c0 .7 2.7 2 7 2s7-1.3 7-2v-2.5c-1.7 1-4.2 1.5-7 1.5s-5.3-.5-7-1.5Z"/>
    <path id="play" d="M6 3.5 20 12 6 20.5v-17Zm2 3.6v9.8l8-4.9-8-4.9Z"/>
    <path id="review" d="M4 3h16v18H4V3Zm2 2v14h12V5H6Zm2 3h8v2H8V8Zm0 4h8v2H8v-2Zm0 4h5v2H8v-2Z"/>
  </defs>
</svg>
